<svg id="visual" viewBox="0 0 960 540" width="960" height="540" xmlns="http://www.w3.org/2000/svg" xmlns:xlink="http://www.w3.org/1999/xlink" version="1.1"><rect x="0" y="0" width="960" height="540" fill="#ffffff"></rect><defs><linearGradient id="grad1_0" x1="43.8%" y1="0%" x2="100%" y2="100%"><stop offset="14.444444444444446%" stop-color="#ffffff" stop-opacity="1"></stop><stop offset="85.55555555555554%" stop-color="#ffffff" stop-opacity="1"></stop></linearGradient></defs><defs><linearGradient id="grad2_0" x1="0%" y1="0%" x2="56.3%" y2="100%"><stop offset="14.444444444444446%" stop-color="#ffffff" stop-opacity="1"></stop><stop offset="85.55555555555554%" stop-color="#ffffff" stop-opacity="1"></stop></linearGradient></defs><g transform="translate(960, 0)"><path d="M0 486C-72.1 487.7 -144.2 489.4 -186 449C-227.7 408.6 -239.1 326.2 -277.9 277.9C-316.7 229.6 -383 215.5 -422.2 174.9C-461.5 134.3 -473.7 67.1 -486 0L0 0Z" fill="#5fba7f"></path></g><g transform="translate(0, 540)"><path d="M0 -486C69.4 -484.4 138.8 -482.9 186 -449C233.2 -415.2 258.3 -349 303.3 -303.3C348.4 -257.7 413.4 -232.4 447.2 -185.2C480.9 -138.1 483.5 -69 486 0L0 0Z" fill="#5fba7f"></path></g></svg>