<svg id="visual" viewBox="0 0 960 540" width="960" height="540" xmlns="http://www.w3.org/2000/svg" xmlns:xlink="http://www.w3.org/1999/xlink" version="1.1"><rect x="0" y="0" width="960" height="540" fill="#ffffff"></rect><path d="M196 0L210.3 8.2C224.7 16.3 253.3 32.7 260.5 49C267.7 65.3 253.3 81.7 261.3 98C269.3 114.3 299.7 130.7 298.5 147C297.3 163.3 264.7 179.7 256.5 196C248.3 212.3 264.7 228.7 271.2 245.2C277.7 261.7 274.3 278.3 257.8 294.8C241.3 311.3 211.7 327.7 205.5 344C199.3 360.3 216.7 376.7 217.7 393C218.7 409.3 203.3 425.7 207.5 442C211.7 458.3 235.3 474.7 238.7 491C242 507.3 225 523.7 216.5 531.8L208 540L0 540L0 531.8C0 523.7 0 507.3 0 491C0 474.7 0 458.3 0 442C0 425.7 0 409.3 0 393C0 376.7 0 360.3 0 344C0 327.7 0 311.3 0 294.8C0 278.3 0 261.7 0 245.2C0 228.7 0 212.3 0 196C0 179.7 0 163.3 0 147C0 130.7 0 114.3 0 98C0 81.7 0 65.3 0 49C0 32.7 0 16.3 0 8.2L0 0Z" fill="#197c3b"></path><path d="M182 0L185.3 8.2C188.7 16.3 195.3 32.7 209.7 49C224 65.3 246 81.7 249.2 98C252.3 114.3 236.7 130.7 225.8 147C215 163.3 209 179.7 197.3 196C185.7 212.3 168.3 228.7 173 245.2C177.7 261.7 204.3 278.3 212.3 294.8C220.3 311.3 209.7 327.7 207 344C204.3 360.3 209.7 376.7 216 393C222.3 409.3 229.7 425.7 235.3 442C241 458.3 245 474.7 236.2 491C227.3 507.3 205.7 523.7 194.8 531.8L184 540L0 540L0 531.8C0 523.7 0 507.3 0 491C0 474.7 0 458.3 0 442C0 425.7 0 409.3 0 393C0 376.7 0 360.3 0 344C0 327.7 0 311.3 0 294.8C0 278.3 0 261.7 0 245.2C0 228.7 0 212.3 0 196C0 179.7 0 163.3 0 147C0 130.7 0 114.3 0 98C0 81.7 0 65.3 0 49C0 32.7 0 16.3 0 8.2L0 0Z" fill="#449656"></path><path d="M202 0L189 8.2C176 16.3 150 32.7 150.2 49C150.3 65.3 176.7 81.7 181.3 98C186 114.3 169 130.7 168.2 147C167.3 163.3 182.7 179.7 187.8 196C193 212.3 188 228.7 185.7 245.2C183.3 261.7 183.7 278.3 189 294.8C194.3 311.3 204.7 327.7 207 344C209.3 360.3 203.7 376.7 193.8 393C184 409.3 170 425.7 159.7 442C149.3 458.3 142.7 474.7 134.7 491C126.7 507.3 117.3 523.7 112.7 531.8L108 540L0 540L0 531.8C0 523.7 0 507.3 0 491C0 474.7 0 458.3 0 442C0 425.7 0 409.3 0 393C0 376.7 0 360.3 0 344C0 327.7 0 311.3 0 294.8C0 278.3 0 261.7 0 245.2C0 228.7 0 212.3 0 196C0 179.7 0 163.3 0 147C0 130.7 0 114.3 0 98C0 81.7 0 65.3 0 49C0 32.7 0 16.3 0 8.2L0 0Z" fill="#67b072"></path><path d="M130 0L127.3 8.2C124.7 16.3 119.3 32.7 119 49C118.7 65.3 123.3 81.7 129.3 98C135.3 114.3 142.7 130.7 147.7 147C152.7 163.3 155.3 179.7 141.7 196C128 212.3 98 228.7 96 245.2C94 261.7 120 278.3 123 294.8C126 311.3 106 327.7 95.8 344C85.7 360.3 85.3 376.7 93.5 393C101.7 409.3 118.3 425.7 124 442C129.7 458.3 124.3 474.7 125.5 491C126.7 507.3 134.3 523.7 138.2 531.8L142 540L0 540L0 531.8C0 523.7 0 507.3 0 491C0 474.7 0 458.3 0 442C0 425.7 0 409.3 0 393C0 376.7 0 360.3 0 344C0 327.7 0 311.3 0 294.8C0 278.3 0 261.7 0 245.2C0 228.7 0 212.3 0 196C0 179.7 0 163.3 0 147C0 130.7 0 114.3 0 98C0 81.7 0 65.3 0 49C0 32.7 0 16.3 0 8.2L0 0Z" fill="#88cb8f"></path><path d="M32 0L32 8.2C32 16.3 32 32.7 34.2 49C36.3 65.3 40.7 81.7 40 98C39.3 114.3 33.7 130.7 43 147C52.3 163.3 76.7 179.7 80.8 196C85 212.3 69 228.7 63.7 245.2C58.3 261.7 63.7 278.3 62.7 294.8C61.7 311.3 54.3 327.7 59.2 344C64 360.3 81 376.7 78.3 393C75.7 409.3 53.3 425.7 50.2 442C47 458.3 63 474.7 70.5 491C78 507.3 77 523.7 76.5 531.8L76 540L0 540L0 531.8C0 523.7 0 507.3 0 491C0 474.7 0 458.3 0 442C0 425.7 0 409.3 0 393C0 376.7 0 360.3 0 344C0 327.7 0 311.3 0 294.8C0 278.3 0 261.7 0 245.2C0 228.7 0 212.3 0 196C0 179.7 0 163.3 0 147C0 130.7 0 114.3 0 98C0 81.7 0 65.3 0 49C0 32.7 0 16.3 0 8.2L0 0Z" fill="#aae7ae"></path></svg>