<svg id="visual" viewBox="0 0 960 540" width="960" height="540" xmlns="http://www.w3.org/2000/svg" xmlns:xlink="http://www.w3.org/1999/xlink" version="1.1"><rect x="0" y="0" width="960" height="540" fill="#ffffff"></rect><path d="M0 115L16 110.8C32 106.7 64 98.3 96 91.3C128 84.3 160 78.7 192 79.7C224 80.7 256 88.3 288 95.3C320 102.3 352 108.7 384 111.5C416 114.3 448 113.7 480 104C512 94.3 544 75.7 576 76.3C608 77 640 97 672 104.8C704 112.7 736 108.3 768 101.7C800 95 832 86 864 77.3C896 68.7 928 60.3 944 56.2L960 52L960 0L944 0C928 0 896 0 864 0C832 0 800 0 768 0C736 0 704 0 672 0C640 0 608 0 576 0C544 0 512 0 480 0C448 0 416 0 384 0C352 0 320 0 288 0C256 0 224 0 192 0C160 0 128 0 96 0C64 0 32 0 16 0L0 0Z" fill="#edfff5" stroke-linecap="round" stroke-linejoin="miter"></path></svg>