<svg id="visual" viewBox="0 0 960 540" width="960" height="540" xmlns="http://www.w3.org/2000/svg" xmlns:xlink="http://www.w3.org/1999/xlink" version="1.1"><rect width="960" height="540" fill="#edfff5"></rect><g><g transform="translate(673 511)"><path d="M0 -21.3L15.1 -15.1L21.3 0L15.1 15.1L0 21.3L-15.1 15.1L-21.3 0L-15.1 -15.1Z" fill="#304948"></path></g><g transform="translate(446 527)"><path d="M0 -10L7.1 -7.1L10 0L7.1 7.1L0 10L-7.1 7.1L-10 0L-7.1 -7.1Z" fill="#304948"></path></g><g transform="translate(711 317)"><path d="M0 -19L13.4 -13.4L19 0L13.4 13.4L0 19L-13.4 13.4L-19 0L-13.4 -13.4Z" fill="#304948"></path></g><g transform="translate(295 261)"><path d="M0 -15L10.6 -10.6L15 0L10.6 10.6L0 15L-10.6 10.6L-15 0L-10.6 -10.6Z" fill="#304948"></path></g><g transform="translate(897 534)"><path d="M0 -15L10.6 -10.6L15 0L10.6 10.6L0 15L-10.6 10.6L-15 0L-10.6 -10.6Z" fill="#304948"></path></g><g transform="translate(396 389)"><path d="M0 -17L12 -12L17 0L12 12L0 17L-12 12L-17 0L-12 -12Z" fill="#304948"></path></g><g transform="translate(605 377)"><path d="M0 -16L11.3 -11.3L16 0L11.3 11.3L0 16L-11.3 11.3L-16 0L-11.3 -11.3Z" fill="#304948"></path></g><g transform="translate(787 283)"><path d="M0 -19L13.4 -13.4L19 0L13.4 13.4L0 19L-13.4 13.4L-19 0L-13.4 -13.4Z" fill="#304948"></path></g><g transform="translate(810 412)"><path d="M0 -16L11.3 -11.3L16 0L11.3 11.3L0 16L-11.3 11.3L-16 0L-11.3 -11.3Z" fill="#304948"></path></g><g transform="translate(121 486)"><path d="M0 -20L14.1 -14.1L20 0L14.1 14.1L0 20L-14.1 14.1L-20 0L-14.1 -14.1Z" fill="#304948"></path></g><g transform="translate(729 518)"><path d="M0 -11L7.8 -7.8L11 0L7.8 7.8L0 11L-7.8 7.8L-11 0L-7.8 -7.8Z" fill="#304948"></path></g><g transform="translate(906 184)"><path d="M0 -11L7.8 -7.8L11 0L7.8 7.8L0 11L-7.8 7.8L-11 0L-7.8 -7.8Z" fill="#304948"></path></g><g transform="translate(405 195)"><path d="M0 -18L12.7 -12.7L18 0L12.7 12.7L0 18L-12.7 12.7L-18 0L-12.7 -12.7Z" fill="#304948"></path></g><g transform="translate(685 206)"><path d="M0 -13L9.2 -9.2L13 0L9.2 9.2L0 13L-9.2 9.2L-13 0L-9.2 -9.2Z" fill="#304948"></path></g><g transform="translate(582 14)"><path d="M0 -15L10.6 -10.6L15 0L10.6 10.6L0 15L-10.6 10.6L-15 0L-10.6 -10.6Z" fill="#304948"></path></g></g></svg>