<svg id="visual" viewBox="0 0 960 540" width="960" height="540" xmlns="http://www.w3.org/2000/svg" xmlns:xlink="http://www.w3.org/1999/xlink" version="1.1"><rect x="0" y="0" width="960" height="540" fill="#ffffff"></rect><path d="M0 248L14.5 240.5C29 233 58 218 87.2 210.3C116.3 202.7 145.7 202.3 174.8 206C204 209.7 233 217.3 262 229.8C291 242.3 320 259.7 349 249C378 238.3 407 199.7 436.2 178.7C465.3 157.7 494.7 154.3 523.8 168.8C553 183.3 582 215.7 611 229.3C640 243 669 238 698 225.7C727 213.3 756 193.7 785.2 190.5C814.3 187.3 843.7 200.7 872.8 217.2C902 233.7 931 253.3 945.5 263.2L960 273L960 0L945.5 0C931 0 902 0 872.8 0C843.7 0 814.3 0 785.2 0C756 0 727 0 698 0C669 0 640 0 611 0C582 0 553 0 523.8 0C494.7 0 465.3 0 436.2 0C407 0 378 0 349 0C320 0 291 0 262 0C233 0 204 0 174.8 0C145.7 0 116.3 0 87.2 0C58 0 29 0 14.5 0L0 0Z" fill="#bfcdc4"></path><path d="M0 222L14.5 210.5C29 199 58 176 87.2 159.7C116.3 143.3 145.7 133.7 174.8 133C204 132.3 233 140.7 262 145C291 149.3 320 149.7 349 162C378 174.3 407 198.7 436.2 201.5C465.3 204.3 494.7 185.7 523.8 180.5C553 175.3 582 183.7 611 188.8C640 194 669 196 698 186.8C727 177.7 756 157.3 785.2 147.5C814.3 137.7 843.7 138.3 872.8 148.5C902 158.7 931 178.3 945.5 188.2L960 198L960 0L945.5 0C931 0 902 0 872.8 0C843.7 0 814.3 0 785.2 0C756 0 727 0 698 0C669 0 640 0 611 0C582 0 553 0 523.8 0C494.7 0 465.3 0 436.2 0C407 0 378 0 349 0C320 0 291 0 262 0C233 0 204 0 174.8 0C145.7 0 116.3 0 87.2 0C58 0 29 0 14.5 0L0 0Z" fill="#b8d4c1"></path><path d="M0 96L14.5 102.3C29 108.7 58 121.3 87.2 120.3C116.3 119.3 145.7 104.7 174.8 110.8C204 117 233 144 262 156.3C291 168.7 320 166.3 349 167.7C378 169 407 174 436.2 161.8C465.3 149.7 494.7 120.3 523.8 105.3C553 90.3 582 89.7 611 97.3C640 105 669 121 698 122.7C727 124.3 756 111.7 785.2 109.8C814.3 108 843.7 117 872.8 125.7C902 134.3 931 142.7 945.5 146.8L960 151L960 0L945.5 0C931 0 902 0 872.8 0C843.7 0 814.3 0 785.2 0C756 0 727 0 698 0C669 0 640 0 611 0C582 0 553 0 523.8 0C494.7 0 465.3 0 436.2 0C407 0 378 0 349 0C320 0 291 0 262 0C233 0 204 0 174.8 0C145.7 0 116.3 0 87.2 0C58 0 29 0 14.5 0L0 0Z" fill="#b2dbbc"></path><path d="M0 94L14.5 90C29 86 58 78 87.2 79.3C116.3 80.7 145.7 91.3 174.8 99.8C204 108.3 233 114.7 262 114.8C291 115 320 109 349 109.8C378 110.7 407 118.3 436.2 119.5C465.3 120.7 494.7 115.3 523.8 111.7C553 108 582 106 611 108.7C640 111.3 669 118.7 698 117.7C727 116.7 756 107.3 785.2 105C814.3 102.7 843.7 107.3 872.8 103.3C902 99.3 931 86.7 945.5 80.3L960 74L960 0L945.5 0C931 0 902 0 872.8 0C843.7 0 814.3 0 785.2 0C756 0 727 0 698 0C669 0 640 0 611 0C582 0 553 0 523.8 0C494.7 0 465.3 0 436.2 0C407 0 378 0 349 0C320 0 291 0 262 0C233 0 204 0 174.8 0C145.7 0 116.3 0 87.2 0C58 0 29 0 14.5 0L0 0Z" fill="#ade1b6"></path><path d="M0 62L14.5 58.8C29 55.7 58 49.3 87.2 51.3C116.3 53.3 145.7 63.7 174.8 60.7C204 57.7 233 41.3 262 40.3C291 39.3 320 53.7 349 55.7C378 57.7 407 47.3 436.2 47C465.3 46.7 494.7 56.3 523.8 55.2C553 54 582 42 611 45C640 48 669 66 698 71.5C727 77 756 70 785.2 65.7C814.3 61.3 843.7 59.7 872.8 61.8C902 64 931 70 945.5 73L960 76L960 0L945.5 0C931 0 902 0 872.8 0C843.7 0 814.3 0 785.2 0C756 0 727 0 698 0C669 0 640 0 611 0C582 0 553 0 523.8 0C494.7 0 465.3 0 436.2 0C407 0 378 0 349 0C320 0 291 0 262 0C233 0 204 0 174.8 0C145.7 0 116.3 0 87.2 0C58 0 29 0 14.5 0L0 0Z" fill="#aae7ae"></path></svg>