<svg id="visual" viewBox="0 0 900 600" width="900" height="600" xmlns="http://www.w3.org/2000/svg" xmlns:xlink="http://www.w3.org/1999/xlink" version="1.1"><rect x="0" y="0" width="900" height="600" fill="#ffffff"></rect><path d="M0 197L21.5 197.7C43 198.3 86 199.7 128.8 202.7C171.7 205.7 214.3 210.3 257.2 210.3C300 210.3 343 205.7 385.8 203.2C428.7 200.7 471.3 200.3 514.2 203.7C557 207 600 214 642.8 210.2C685.7 206.3 728.3 191.7 771.2 192.7C814 193.7 857 210.3 878.5 218.7L900 227L900 0L878.5 0C857 0 814 0 771.2 0C728.3 0 685.7 0 642.8 0C600 0 557 0 514.2 0C471.3 0 428.7 0 385.8 0C343 0 300 0 257.2 0C214.3 0 171.7 0 128.8 0C86 0 43 0 21.5 0L0 0Z" fill="#43e44b"></path><path d="M0 186L21.5 183C43 180 86 174 128.8 165.3C171.7 156.7 214.3 145.3 257.2 146.8C300 148.3 343 162.7 385.8 173.7C428.7 184.7 471.3 192.3 514.2 186.8C557 181.3 600 162.7 642.8 157.8C685.7 153 728.3 162 771.2 160.2C814 158.3 857 145.7 878.5 139.3L900 133L900 0L878.5 0C857 0 814 0 771.2 0C728.3 0 685.7 0 642.8 0C600 0 557 0 514.2 0C471.3 0 428.7 0 385.8 0C343 0 300 0 257.2 0C214.3 0 171.7 0 128.8 0C86 0 43 0 21.5 0L0 0Z" fill="#37ca3e"></path><path d="M0 91L21.5 91.8C43 92.7 86 94.3 128.8 104.2C171.7 114 214.3 132 257.2 131.7C300 131.3 343 112.7 385.8 107.7C428.7 102.7 471.3 111.3 514.2 121.2C557 131 600 142 642.8 141.5C685.7 141 728.3 129 771.2 128.8C814 128.7 857 140.3 878.5 146.2L900 152L900 0L878.5 0C857 0 814 0 771.2 0C728.3 0 685.7 0 642.8 0C600 0 557 0 514.2 0C471.3 0 428.7 0 385.8 0C343 0 300 0 257.2 0C214.3 0 171.7 0 128.8 0C86 0 43 0 21.5 0L0 0Z" fill="#2bb131"></path><path d="M0 108L21.5 102.2C43 96.3 86 84.7 128.8 78.7C171.7 72.7 214.3 72.3 257.2 73.8C300 75.3 343 78.7 385.8 78.2C428.7 77.7 471.3 73.3 514.2 78.5C557 83.7 600 98.3 642.8 103.8C685.7 109.3 728.3 105.7 771.2 98.2C814 90.7 857 79.3 878.5 73.7L900 68L900 0L878.5 0C857 0 814 0 771.2 0C728.3 0 685.7 0 642.8 0C600 0 557 0 514.2 0C471.3 0 428.7 0 385.8 0C343 0 300 0 257.2 0C214.3 0 171.7 0 128.8 0C86 0 43 0 21.5 0L0 0Z" fill="#1f9925"></path><path d="M0 72L21.5 67C43 62 86 52 128.8 48.3C171.7 44.7 214.3 47.3 257.2 46.2C300 45 343 40 385.8 41.3C428.7 42.7 471.3 50.3 514.2 48.7C557 47 600 36 642.8 38.2C685.7 40.3 728.3 55.7 771.2 57.2C814 58.7 857 46.3 878.5 40.2L900 34L900 0L878.5 0C857 0 814 0 771.2 0C728.3 0 685.7 0 642.8 0C600 0 557 0 514.2 0C471.3 0 428.7 0 385.8 0C343 0 300 0 257.2 0C214.3 0 171.7 0 128.8 0C86 0 43 0 21.5 0L0 0Z" fill="#118119"></path></svg>