<svg id="visual" viewBox="0 0 960 540" width="960" height="540" xmlns="http://www.w3.org/2000/svg" xmlns:xlink="http://www.w3.org/1999/xlink" version="1.1"><rect x="0" y="0" width="960" height="540" fill="#ffffff"></rect><path d="M299 0L307 0L307 54L290 54L290 108L324 108L324 162L270 162L270 216L283 216L283 270L297 270L297 324L309 324L309 378L279 378L279 432L265 432L265 486L315 486L315 540L0 540L0 486L0 486L0 432L0 432L0 378L0 378L0 324L0 324L0 270L0 270L0 216L0 216L0 162L0 162L0 108L0 108L0 54L0 54L0 0L0 0Z" fill="#f0f7ba"></path><path d="M258 0L275 0L275 54L261 54L261 108L245 108L245 162L282 162L282 216L258 216L258 270L257 270L257 324L274 324L274 378L240 378L240 432L236 432L236 486L276 486L276 540L0 540L0 486L0 486L0 432L0 432L0 378L0 378L0 324L0 324L0 270L0 270L0 216L0 216L0 162L0 162L0 108L0 108L0 54L0 54L0 0L0 0Z" fill="#cbf398"></path><path d="M233 0L217 0L217 54L242 54L242 108L196 108L196 162L189 162L189 216L240 216L240 270L197 270L197 324L221 324L221 378L196 378L196 432L233 432L233 486L211 486L211 540L0 540L0 486L0 486L0 432L0 432L0 378L0 378L0 324L0 324L0 270L0 270L0 216L0 216L0 162L0 162L0 108L0 108L0 54L0 54L0 0L0 0Z" fill="#93f081"></path><path d="M187 0L156 0L156 54L195 54L195 108L171 108L171 162L148 162L148 216L190 216L190 270L197 270L197 324L189 324L189 378L179 378L179 432L172 432L172 486L167 486L167 540L0 540L0 486L0 486L0 432L0 432L0 378L0 378L0 324L0 324L0 270L0 270L0 216L0 216L0 162L0 162L0 108L0 108L0 54L0 54L0 0L0 0Z" fill="#72ef7c"></path><path d="M113 0L117 0L117 54L129 54L129 108L119 108L119 162L122 162L122 216L118 216L118 270L146 270L146 324L145 324L145 378L155 378L155 432L137 432L137 486L131 486L131 540L0 540L0 486L0 486L0 432L0 432L0 378L0 378L0 324L0 324L0 270L0 270L0 216L0 216L0 162L0 162L0 108L0 108L0 54L0 54L0 0L0 0Z" fill="#93f081"></path><path d="M83 0L72 0L72 54L99 54L99 108L109 108L109 162L100 162L100 216L75 216L75 270L109 270L109 324L109 324L109 378L111 378L111 432L80 432L80 486L108 486L108 540L0 540L0 486L0 486L0 432L0 432L0 378L0 378L0 324L0 324L0 270L0 270L0 216L0 216L0 162L0 162L0 108L0 108L0 54L0 54L0 0L0 0Z" fill="#cbf398"></path><path d="M52 0L36 0L36 54L59 54L59 108L38 108L38 162L56 162L56 216L56 216L56 270L41 270L41 324L63 324L63 378L42 378L42 432L60 432L60 486L53 486L53 540L0 540L0 486L0 486L0 432L0 432L0 378L0 378L0 324L0 324L0 270L0 270L0 216L0 216L0 162L0 162L0 108L0 108L0 54L0 54L0 0L0 0Z" fill="#f0f7ba"></path></svg>